<?xml version="1.0" standalone="no"?><svg xmlns="http://www.w3.org/2000/svg" viewBox="0 0 1440 320"><path fill="#ffd700" fill-opacity="1" d="M0,320L10.4,314.7C20.9,309,42,299,63,272C83.5,245,104,203,125,202.7C146.1,203,167,245,188,229.3C208.7,213,230,139,250,128C271.3,117,292,171,313,202.7C333.9,235,355,245,376,229.3C396.5,213,417,171,438,165.3C459.1,160,480,192,501,218.7C521.7,245,543,267,563,266.7C584.3,267,605,245,626,245.3C647,245,668,267,689,282.7C709.6,299,730,309,751,288C772.2,267,793,213,814,202.7C834.8,192,856,224,877,208C897.4,192,918,128,939,112C960,96,981,128,1002,122.7C1022.6,117,1043,75,1064,85.3C1085.2,96,1106,160,1127,181.3C1147.8,203,1169,181,1190,144C1210.4,107,1231,53,1252,48C1273,43,1294,85,1315,112C1335.7,139,1357,149,1377,160C1398.3,171,1419,181,1430,186.7L1440,192L1440,320L1429.6,320C1419.1,320,1398,320,1377,320C1356.5,320,1336,320,1315,320C1293.9,320,1273,320,1252,320C1231.3,320,1210,320,1190,320C1168.7,320,1148,320,1127,320C1106.1,320,1085,320,1064,320C1043.5,320,1023,320,1002,320C980.9,320,960,320,939,320C918.3,320,897,320,877,320C855.7,320,835,320,814,320C793,320,772,320,751,320C730.4,320,710,320,689,320C667.8,320,647,320,626,320C605.2,320,584,320,563,320C542.6,320,522,320,501,320C480,320,459,320,438,320C417.4,320,397,320,376,320C354.8,320,334,320,313,320C292.2,320,271,320,250,320C229.6,320,209,320,188,320C167,320,146,320,125,320C104.3,320,83,320,63,320C41.7,320,21,320,10,320L0,320Z"></path></svg>