<?xml version="1.0" standalone="no"?><svg xmlns="http://www.w3.org/2000/svg" viewBox="0 0 1440 320"><path fill="#ffd700" fill-opacity="1" d="M0,160L10.4,160C20.9,160,42,160,63,138.7C83.5,117,104,75,125,90.7C146.1,107,167,181,188,176C208.7,171,230,85,250,53.3C271.3,21,292,43,313,58.7C333.9,75,355,85,376,101.3C396.5,117,417,139,438,165.3C459.1,192,480,224,501,197.3C521.7,171,543,85,563,64C584.3,43,605,85,626,101.3C647,117,668,107,689,128C709.6,149,730,203,751,197.3C772.2,192,793,128,814,122.7C834.8,117,856,171,877,165.3C897.4,160,918,96,939,85.3C960,75,981,117,1002,117.3C1022.6,117,1043,75,1064,96C1085.2,117,1106,203,1127,229.3C1147.8,256,1169,224,1190,176C1210.4,128,1231,64,1252,64C1273,64,1294,128,1315,165.3C1335.7,203,1357,213,1377,186.7C1398.3,160,1419,96,1430,64L1440,32L1440,320L1429.6,320C1419.1,320,1398,320,1377,320C1356.5,320,1336,320,1315,320C1293.9,320,1273,320,1252,320C1231.3,320,1210,320,1190,320C1168.7,320,1148,320,1127,320C1106.1,320,1085,320,1064,320C1043.5,320,1023,320,1002,320C980.9,320,960,320,939,320C918.3,320,897,320,877,320C855.7,320,835,320,814,320C793,320,772,320,751,320C730.4,320,710,320,689,320C667.8,320,647,320,626,320C605.2,320,584,320,563,320C542.6,320,522,320,501,320C480,320,459,320,438,320C417.4,320,397,320,376,320C354.8,320,334,320,313,320C292.2,320,271,320,250,320C229.6,320,209,320,188,320C167,320,146,320,125,320C104.3,320,83,320,63,320C41.7,320,21,320,10,320L0,320Z"></path></svg>