<?xml version="1.0" standalone="no"?><svg xmlns="http://www.w3.org/2000/svg" viewBox="0 0 1440 320"><path fill="#ffd700" fill-opacity="1" d="M0,224L10.4,229.3C20.9,235,42,245,63,234.7C83.5,224,104,192,125,181.3C146.1,171,167,181,188,160C208.7,139,230,85,250,74.7C271.3,64,292,96,313,112C333.9,128,355,128,376,133.3C396.5,139,417,149,438,176C459.1,203,480,245,501,266.7C521.7,288,543,288,563,293.3C584.3,299,605,309,626,261.3C647,213,668,107,689,58.7C709.6,11,730,21,751,42.7C772.2,64,793,96,814,96C834.8,96,856,64,877,69.3C897.4,75,918,117,939,149.3C960,181,981,203,1002,181.3C1022.6,160,1043,96,1064,64C1085.2,32,1106,32,1127,53.3C1147.8,75,1169,117,1190,138.7C1210.4,160,1231,160,1252,149.3C1273,139,1294,117,1315,117.3C1335.7,117,1357,139,1377,165.3C1398.3,192,1419,224,1430,240L1440,256L1440,320L1429.6,320C1419.1,320,1398,320,1377,320C1356.5,320,1336,320,1315,320C1293.9,320,1273,320,1252,320C1231.3,320,1210,320,1190,320C1168.7,320,1148,320,1127,320C1106.1,320,1085,320,1064,320C1043.5,320,1023,320,1002,320C980.9,320,960,320,939,320C918.3,320,897,320,877,320C855.7,320,835,320,814,320C793,320,772,320,751,320C730.4,320,710,320,689,320C667.8,320,647,320,626,320C605.2,320,584,320,563,320C542.6,320,522,320,501,320C480,320,459,320,438,320C417.4,320,397,320,376,320C354.8,320,334,320,313,320C292.2,320,271,320,250,320C229.6,320,209,320,188,320C167,320,146,320,125,320C104.3,320,83,320,63,320C41.7,320,21,320,10,320L0,320Z"></path></svg>